<svg width="164" height="111" viewBox="0 0 164 111" fill="none" xmlns="http://www.w3.org/2000/svg">
<g clip-path="url(#clip0_4179_7891)">
<path d="M116.017 33.5664C112.937 32.085 109.234 33.3692 107.747 36.4432L97.3203 57.9664C97.2493 58.113 97.1884 58.2596 97.1275 58.4113L94.5043 63.8262C93.0177 66.8952 94.3115 70.586 97.3913 72.0674C100.471 73.5488 104.175 72.2646 105.662 69.1906L116.088 47.6674C116.159 47.5208 116.22 47.3742 116.281 47.2225L118.904 41.8076C120.391 38.7386 119.097 35.0478 116.017 33.5664Z" fill="white"/>
<path d="M77.6289 39.5223C74.5491 38.0409 70.8453 39.3251 69.3587 42.3991L58.932 63.9223C57.4454 66.9913 58.7342 70.6821 61.819 72.1635C64.8988 73.6449 68.6027 72.3607 70.0893 69.2866L80.5159 47.7635C82.0025 44.6945 80.7138 41.0037 77.6289 39.5223Z" fill="white"/>
<path d="M68.1257 22.9944C65.0459 21.513 61.3421 22.7972 59.8555 25.8713L54.7005 36.5039C54.6954 36.5191 54.6853 36.5342 54.6802 36.5494L44.2536 58.0726C44.1825 58.2192 44.1216 58.3658 44.0608 58.5175L41.4376 63.9324C39.951 67.0014 41.2397 70.6922 44.3246 72.1736C47.4044 73.655 51.1083 72.3708 52.5949 69.2968L63.0164 47.7787C63.0824 47.6422 63.1433 47.5006 63.1991 47.359L71.0127 31.2356C72.4993 28.1667 71.2055 24.4758 68.1257 22.9944Z" fill="white"/>
<path d="M121.796 20.0822L115.779 2.35607C115.566 1.72913 115.099 1.25388 114.536 1.00613C113.993 0.707834 113.338 0.626939 112.704 0.839288L94.9204 6.83564C93.7281 7.23506 93.0888 8.52432 93.4947 9.71247C93.8955 10.9006 95.0219 11.1635 96.3817 11.1332L102.643 11.2495C102.612 11.3101 102.582 11.3658 102.551 11.4264L76.6091 63.7302C75.087 66.7941 76.3503 70.5102 79.4251 72.0219C82.4998 73.5387 86.229 72.2798 87.7461 69.2159L113.688 16.9121C113.704 16.8818 113.719 16.8515 113.729 16.8211L117.478 21.5282C118.052 22.4282 119.173 23.3534 120.365 22.9489C121.563 22.5546 122.202 21.2653 121.796 20.0822Z" fill="white"/>
<path d="M11.756 89.5509C12.2836 90.2284 12.5526 91.0019 12.5526 91.8716C12.5526 93.1254 12.1111 94.1214 11.2334 94.8546C10.3556 95.5877 9.12775 95.9567 7.5498 95.9567H0.527679V80.9406H7.31133C8.84362 80.9406 10.041 81.2895 10.9086 81.9872C11.7763 82.6849 12.2075 83.6354 12.2075 84.8337C12.2075 85.7185 11.9741 86.4516 11.5074 87.0381C11.0406 87.6246 10.4216 88.029 9.65035 88.2565C10.523 88.4436 11.2232 88.8734 11.756 89.5509ZM4.2011 87.0178H6.60608C7.20478 87.0178 7.6665 86.8864 7.99122 86.6235C8.31087 86.3606 8.47323 85.9713 8.47323 85.4556C8.47323 84.9399 8.31087 84.5505 7.99122 84.2775C7.67157 84.0045 7.20986 83.873 6.60608 83.873H4.2011V87.0178ZM8.33116 92.5895C8.66603 92.3114 8.83347 91.9069 8.83347 91.3811C8.83347 90.8553 8.65589 90.4407 8.30579 90.1424C7.9557 89.8441 7.47369 89.6924 6.85469 89.6924H4.2011V93.0091H6.90543C7.51936 93.0091 7.99629 92.8676 8.33116 92.5895Z" fill="white"/>
<path d="M22.3551 95.9567L19.2195 90.289H18.3417V95.9567H14.6734V80.9406H20.833C22.0202 80.9406 23.035 81.1479 23.8722 81.5625C24.7093 81.9771 25.3334 82.5433 25.7495 83.2613C26.1655 83.9792 26.3736 84.7831 26.3736 85.6679C26.3736 86.6639 26.0894 87.5588 25.5262 88.3425C24.963 89.1262 24.1259 89.6823 23.0249 90.011L26.5004 95.9567H22.3551ZM18.3417 87.7004H20.6148C21.2896 87.7004 21.7919 87.5386 22.1268 87.21C22.4617 86.8813 22.6291 86.4212 22.6291 85.8196C22.6291 85.2483 22.4617 84.7983 22.1268 84.4697C21.7919 84.141 21.2845 83.9792 20.6148 83.9792H18.3417V87.7004Z" fill="white"/>
<path d="M32.3403 80.9456V95.9618H28.6669V80.9456H32.3403Z" fill="white"/>
<path d="M45.0045 85.6932C44.7305 85.1926 44.3449 84.8134 43.8324 84.5505C43.3251 84.2876 42.7264 84.1562 42.0414 84.1562C40.8541 84.1562 39.9003 84.5455 39.1849 85.3241C38.4694 86.1027 38.1092 87.1392 38.1092 88.4386C38.1092 89.8239 38.4847 90.9008 39.2356 91.6794C39.9865 92.458 41.0216 92.8473 42.3357 92.8473C43.2388 92.8473 43.9999 92.6198 44.6239 92.1648C45.248 91.7097 45.6996 91.0525 45.9888 90.198H41.3311V87.5032H49.3172V90.9059C49.0432 91.821 48.5815 92.6653 47.9321 93.449C47.2826 94.2327 46.4556 94.8697 45.451 95.35C44.4514 95.8354 43.32 96.0781 42.0617 96.0781C40.5751 96.0781 39.2457 95.7545 38.0788 95.1073C36.9118 94.4602 36.0036 93.5552 35.3541 92.4024C34.7047 91.2497 34.38 89.9301 34.38 88.4436C34.38 86.9622 34.7047 85.6376 35.3541 84.4747C36.0036 83.3118 36.9118 82.4068 38.0686 81.7597C39.2254 81.1125 40.5497 80.7889 42.0414 80.7889C43.8426 80.7889 45.3647 81.2237 46.6027 82.0933C47.8407 82.963 48.6576 84.1663 49.0584 85.7083H45.0045V85.6932Z" fill="white"/>
<path d="M64.4066 80.9456V95.9618H60.7383V89.7784H55.0303V95.9618H51.3619V80.9456H55.0303V86.8257H60.7383V80.9456H64.4066Z" fill="white"/>
<path d="M77.8877 80.9456V83.8781H73.8946V95.9618H70.2263V83.8781H66.2332V80.9456H77.8877Z" fill="white"/>
<path d="M80.0745 84.4595C80.7189 83.2967 81.6169 82.3916 82.7687 81.7445C83.9204 81.0973 85.2244 80.7737 86.6856 80.7737C88.4767 80.7737 90.0039 81.2439 91.2774 82.1844C92.5509 83.1248 93.4033 84.409 93.8346 86.0319H89.8009C89.5016 85.405 89.0754 84.9247 88.5223 84.6011C87.9693 84.2725 87.3452 84.1107 86.645 84.1107C85.5136 84.1107 84.6003 84.505 83.8951 85.2887C83.1949 86.0724 82.8448 87.119 82.8448 88.4335C82.8448 89.748 83.1949 90.7946 83.8951 91.5783C84.5952 92.362 85.5136 92.7563 86.645 92.7563C87.3452 92.7563 87.9744 92.5945 88.5223 92.2659C89.0754 91.9373 89.4965 91.462 89.8009 90.8351H93.8346C93.4033 92.4631 92.5509 93.7422 91.2774 94.6725C90.0039 95.6079 88.4716 96.073 86.6856 96.073C85.2244 96.073 83.9204 95.7495 82.7687 95.1023C81.6169 94.4551 80.7189 93.5501 80.0745 92.3974C79.4301 91.2446 79.1105 89.925 79.1105 88.4386C79.1105 86.9471 79.4301 85.6224 80.0745 84.4595Z" fill="white"/>
<path d="M99.3143 95.1225C98.1321 94.4652 97.1985 93.5501 96.5034 92.3721C95.8083 91.194 95.4633 89.8744 95.4633 88.4032C95.4633 86.9369 95.8083 85.6173 96.5034 84.4444C97.1985 83.2764 98.1321 82.3613 99.3143 81.704C100.496 81.0468 101.795 80.7181 103.211 80.7181C104.627 80.7181 105.925 81.0468 107.108 81.704C108.29 82.3613 109.218 83.2714 109.898 84.4444C110.578 85.6123 110.918 86.9319 110.918 88.4032C110.918 89.8744 110.573 91.194 109.888 92.3721C109.203 93.5501 108.27 94.4652 107.097 95.1225C105.925 95.7798 104.627 96.1084 103.211 96.1084C101.795 96.1084 100.496 95.7798 99.3143 95.1225ZM106.098 91.5732C106.818 90.7744 107.184 89.7177 107.184 88.4082C107.184 87.0836 106.823 86.0218 106.098 85.2331C105.377 84.4393 104.413 84.0449 103.211 84.0449C101.993 84.0449 101.024 84.4393 100.304 85.223C99.5832 86.0066 99.2179 87.0684 99.2179 88.4082C99.2179 89.7329 99.5781 90.7946 100.304 91.5833C101.029 92.3721 101.993 92.7715 103.211 92.7715C104.413 92.7715 105.377 92.3721 106.098 91.5732Z" fill="white"/>
<path d="M130.021 80.9456V95.9618H126.353V86.9572L122.984 95.9618H120.02L116.631 86.9369V95.9618H112.963V80.9456H117.296L121.522 91.3407L125.708 80.9456H130.021Z" fill="white"/>
<path d="M149.727 80.9456V95.9618H146.059V86.9572L142.69 95.9618H139.727L136.338 86.9369V95.9618H132.669V80.9456H137.002L141.229 91.3407L145.415 80.9456H149.727Z" fill="white"/>
<path d="M154.857 95.5725C153.984 95.2186 153.284 94.6877 152.767 93.99C152.244 93.2923 151.97 92.4479 151.94 91.4671H155.846C155.902 92.0232 156.095 92.4479 156.425 92.7412C156.755 93.0344 157.186 93.181 157.714 93.181C158.256 93.181 158.688 93.0546 159.002 92.8069C159.317 92.5591 159.474 92.2103 159.474 91.7704C159.474 91.4013 159.347 91.0929 159.099 90.8502C158.85 90.6076 158.541 90.4104 158.175 90.2536C157.81 90.0969 157.292 89.9199 156.618 89.7177C155.643 89.4194 154.852 89.1211 154.233 88.8177C153.619 88.5194 153.086 88.0745 152.645 87.4931C152.198 86.9066 151.98 86.1432 151.98 85.2028C151.98 83.8073 152.488 82.7102 153.502 81.9214C154.517 81.1277 155.841 80.7333 157.475 80.7333C159.134 80.7333 160.474 81.1277 161.488 81.9214C162.503 82.7152 163.046 83.8124 163.117 85.228H159.144C159.114 84.7427 158.936 84.3635 158.607 84.0854C158.277 83.8073 157.856 83.6657 157.338 83.6657C156.897 83.6657 156.536 83.782 156.262 84.0197C155.988 84.2573 155.857 84.596 155.857 85.0359C155.857 85.5213 156.085 85.9005 156.542 86.1684C156.998 86.4415 157.714 86.7296 158.688 87.0431C159.662 87.3718 160.453 87.6852 161.057 87.9835C161.666 88.2818 162.194 88.7166 162.635 89.288C163.077 89.8593 163.3 90.5924 163.3 91.4923C163.3 92.3468 163.082 93.1254 162.645 93.8231C162.209 94.5209 161.575 95.077 160.748 95.4916C159.916 95.9062 158.936 96.1135 157.805 96.1135C156.714 96.1084 155.73 95.9315 154.857 95.5725Z" fill="white"/>
<path d="M50.7125 105.646C50.5146 105.196 50.2153 104.842 49.8144 104.584C49.4136 104.326 48.9367 104.195 48.3938 104.195C47.8813 104.195 47.4247 104.311 47.0188 104.549C46.6129 104.786 46.2932 105.12 46.0547 105.555C45.8213 105.99 45.6996 106.495 45.6996 107.066C45.6996 107.638 45.8163 108.148 46.0547 108.583C46.2932 109.018 46.6129 109.357 47.0188 109.594C47.4247 109.827 47.8864 109.948 48.3938 109.948C48.8707 109.948 49.302 109.847 49.6876 109.64C50.0732 109.433 50.3776 109.139 50.611 108.76C50.8444 108.376 50.9763 107.931 51.0068 107.425H48.1147V106.869H51.7323V107.37C51.7019 107.971 51.5344 108.512 51.2402 109.003C50.9459 109.488 50.5501 109.873 50.058 110.156C49.5607 110.439 49.0077 110.575 48.3938 110.575C47.7595 110.575 47.1811 110.429 46.6636 110.13C46.1461 109.832 45.7402 109.417 45.4408 108.887C45.1415 108.356 44.9943 107.754 44.9943 107.082C44.9943 106.409 45.1415 105.808 45.4408 105.277C45.7402 104.746 46.1461 104.331 46.6636 104.033C47.1811 103.735 47.7595 103.588 48.3938 103.588C49.1295 103.588 49.7688 103.77 50.3218 104.134C50.8698 104.498 51.2706 105.009 51.5192 105.661H50.7125V105.646Z" fill="white"/>
<path d="M56.3139 110.12C55.7964 109.822 55.3905 109.407 55.0911 108.876C54.7918 108.346 54.6447 107.744 54.6447 107.072C54.6447 106.399 54.7918 105.797 55.0911 105.267C55.3905 104.736 55.7964 104.321 56.3139 104.023C56.8315 103.724 57.4099 103.578 58.0441 103.578C58.6885 103.578 59.2669 103.724 59.7844 104.023C60.3019 104.321 60.7078 104.736 61.0021 105.267C61.2964 105.797 61.4435 106.399 61.4435 107.072C61.4435 107.744 61.2964 108.346 61.0021 108.876C60.7078 109.407 60.3019 109.822 59.7844 110.12C59.2669 110.419 58.6885 110.565 58.0441 110.565C57.4099 110.565 56.8315 110.419 56.3139 110.12ZM59.4191 109.615C59.825 109.382 60.1446 109.043 60.3831 108.598C60.6165 108.159 60.7383 107.648 60.7383 107.066C60.7383 106.485 60.6216 105.974 60.3831 105.54C60.1446 105.1 59.825 104.766 59.4191 104.528C59.0132 104.291 58.5515 104.174 58.0441 104.174C57.5367 104.174 57.075 104.291 56.6691 104.528C56.2632 104.766 55.9435 105.1 55.7051 105.54C55.4666 105.979 55.3499 106.485 55.3499 107.066C55.3499 107.648 55.4666 108.159 55.7051 108.598C55.9385 109.038 56.2632 109.377 56.6691 109.615C57.075 109.852 57.5367 109.969 58.0441 109.969C58.5515 109.969 59.0132 109.852 59.4191 109.615Z" fill="white"/>
<path d="M73.0422 103.649V104.215H70.0182V106.773H72.5754V107.339H70.0182V110.494H69.3282V103.649H73.0422Z" fill="white"/>
<path d="M76.7968 103.649V107.956C76.7968 108.634 76.9592 109.139 77.2839 109.463C77.6086 109.792 78.05 109.953 78.6132 109.953C79.1764 109.953 79.6178 109.792 79.9375 109.468C80.2571 109.144 80.4144 108.639 80.4144 107.956V103.649H81.1045V107.951C81.1045 108.821 80.8711 109.473 80.4093 109.908C79.9476 110.348 79.3439 110.565 78.6031 110.565C77.8623 110.565 77.2636 110.348 76.8019 109.908C76.3402 109.468 76.1068 108.816 76.1068 107.951V103.649H76.7968Z" fill="white"/>
<path d="M88.2585 110.494L86.5588 107.633H85.2903V110.494H84.6003V103.649H86.6653C87.4315 103.649 88.015 103.831 88.4107 104.195C88.8065 104.559 89.0044 105.039 89.0044 105.636C89.0044 106.131 88.8623 106.556 88.5782 106.905C88.294 107.254 87.8729 107.481 87.3148 107.587L89.0855 110.494H88.2585ZM85.2903 107.077H86.6755C87.2133 107.077 87.6192 106.945 87.8881 106.687C88.1621 106.424 88.294 106.076 88.294 105.641C88.294 105.191 88.1621 104.842 87.8983 104.599C87.6344 104.356 87.2235 104.23 86.6603 104.23H85.2853V107.077H85.2903Z" fill="white"/>
<path d="M96.3613 103.649V104.215H94.4536V110.494H93.7636V104.22H91.8457V103.654H96.3613V103.649Z" fill="white"/>
<path d="M104.52 103.649V110.494H103.83V107.289H100.106V110.494H99.4158V103.649H100.106V106.723H103.83V103.649H104.52Z" fill="white"/>
<path d="M108.746 104.21V106.768H111.349V107.334H108.746V109.928H111.644V110.494H108.056V103.639H111.644V104.205H108.746V104.21Z" fill="white"/>
<path d="M118.625 110.494L116.925 107.633H115.657V110.494H114.967V103.649H117.032C117.798 103.649 118.382 103.831 118.777 104.195C119.173 104.559 119.371 105.039 119.371 105.636C119.371 106.131 119.229 106.556 118.945 106.905C118.661 107.254 118.24 107.481 117.681 107.587L119.452 110.494H118.625ZM115.657 107.077H117.042C117.58 107.077 117.986 106.945 118.255 106.687C118.529 106.424 118.661 106.076 118.661 105.641C118.661 105.191 118.529 104.842 118.265 104.599C118.001 104.356 117.59 104.23 117.027 104.23H115.652V107.077H115.657Z" fill="white"/>
<path d="M39.7836 106.49H0.507385V107.436H39.7836V106.49Z" fill="white"/>
<path d="M163.493 106.49H123.648V107.436H163.493V106.49Z" fill="white"/>
</g>
<defs>
<clipPath id="clip0_4179_7891">
<rect width="164" height="111" fill="white"/>
</clipPath>
</defs>
</svg>
